<?xml version="1.0" standalone="no"?>
<!DOCTYPE svg PUBLIC "-//W3C//DTD SVG 20010904//EN"
 "http://www.w3.org/TR/2001/REC-SVG-20010904/DTD/svg10.dtd">
<svg version="1.0" xmlns="http://www.w3.org/2000/svg"
 width="842.000000pt" height="595.000000pt" viewBox="0 0 842.000000 595.000000"
 preserveAspectRatio="xMidYMid meet">

<g transform="translate(0.000000,595.000000) scale(0.100000,-0.100000)"
fill="#000000" stroke="none">
<path d="M5388 4886 c-316 -41 -605 -125 -1338 -389 -491 -177 -795 -267
-1040 -307 -159 -26 -380 -36 -484 -21 -44 6 -81 10 -83 8 -2 -2 5 -60 16
-128 36 -221 41 -373 41 -1155 0 -831 1 -816 -57 -876 l-27 -28 530 0 529 0
43 198 c23 108 45 208 49 221 6 24 6 24 -38 -6 -24 -17 -71 -41 -104 -54 -57
-22 -74 -24 -332 -27 l-273 -3 0 175 c0 205 -20 175 170 262 131 60 207 77
249 55 l21 -12 0 221 0 220 -32 -14 c-18 -7 -116 -53 -217 -100 -101 -47 -185
-86 -187 -86 -2 0 -4 181 -4 403 l0 403 128 12 c270 24 528 93 1157 307 725
247 1010 319 1345 340 369 23 714 -114 907 -360 32 -40 62 -74 66 -74 4 -1 22
29 40 67 30 64 32 73 32 188 0 119 0 121 -39 198 -85 173 -264 291 -523 346
-128 27 -394 35 -545 16z"/>
<path d="M5338 4460 c-291 -33 -535 -98 -1183 -315 -777 -260 -905 -294 -1237
-330 -43 -5 -58 -10 -58 -22 0 -35 297 12 580 90 69 19 127 34 129 32 3 -4
-110 -525 -125 -580 -6 -19 -5 -19 16 1 17 17 34 79 86 309 35 158 65 289 66
289 106 38 1010 336 1093 360 643 187 1075 178 1385 -30 76 -50 206 -180 259
-258 l34 -49 19 22 c17 23 17 24 -4 55 -157 227 -348 356 -613 411 -94 20
-335 28 -447 15z"/>
<path d="M2350 4185 c0 -3 11 -65 24 -138 42 -228 47 -365 44 -1202 -2 -429
-7 -789 -11 -800 -7 -15 -2 -13 16 7 15 16 28 45 32 70 3 24 5 419 3 878 -4
725 -6 852 -22 961 -25 184 -36 223 -63 227 -13 2 -23 1 -23 -3z"/>
<path d="M6856 3954 c-190 -46 -352 -203 -413 -399 -16 -55 -18 -104 -18 -590
0 -519 0 -531 22 -600 108 -343 477 -501 803 -343 88 42 203 158 248 250 59
120 62 151 62 693 0 547 -3 571 -65 696 -48 96 -153 201 -246 246 -123 61
-266 78 -393 47z m229 -329 c50 -20 96 -66 121 -120 l24 -50 0 -486 c0 -513
-1 -525 -47 -587 -106 -143 -321 -123 -405 37 l-28 53 0 493 0 493 28 53 c58
111 192 161 307 114z"/>
<path d="M6940 3601 c-39 -12 -85 -38 -101 -57 -13 -15 -10 -15 21 1 89 48
213 9 267 -83 l28 -47 3 -466 c3 -436 2 -471 -16 -523 -22 -65 -5 -60 31 8 22
41 22 47 22 531 0 488 0 490 -22 532 -45 84 -148 130 -233 104z"/>
<path d="M870 3935 c0 -3 25 -19 55 -36 65 -36 100 -76 115 -127 6 -24 10
-321 10 -852 -1 -676 -3 -822 -15 -855 -18 -49 -13 -55 13 -17 42 58 43 82 40
942 -3 784 -4 827 -22 863 -25 50 -88 87 -149 87 -26 0 -47 -2 -47 -5z"/>
<path d="M1080 3898 c17 -24 34 -66 40 -97 14 -73 14 -1599 0 -1672 -6 -30
-23 -73 -40 -96 l-30 -43 241 0 240 0 -30 38 c-43 55 -51 98 -51 299 l0 181
51 41 c29 23 54 41 58 41 3 0 53 -100 110 -223 116 -249 128 -295 92 -346
l-22 -31 263 0 262 0 -57 58 c-53 54 -67 80 -220 407 l-164 350 121 116 c162
156 223 260 247 423 38 254 -108 484 -361 568 -61 20 -89 22 -423 26 l-358 4
31 -44z m653 -299 c47 -13 106 -63 123 -106 41 -97 -2 -209 -124 -324 -79 -75
-264 -229 -276 -229 -3 0 -6 151 -6 335 l0 335 123 0 c67 0 139 -5 160 -11z"/>
<path d="M1490 3556 c0 -9 24 -15 89 -19 133 -8 188 -40 209 -120 14 -49 -5
-122 -43 -174 l-28 -38 27 25 c16 14 41 48 57 75 23 40 29 62 29 112 0 52 -4
66 -27 94 -41 48 -78 59 -203 59 -86 0 -110 -3 -110 -14z"/>
<path d="M3645 3928 c-2 -7 -22 -98 -45 -203 -22 -104 -43 -199 -47 -210 -5
-18 -5 -19 18 -2 93 67 199 97 342 97 l97 0 0 -739 c0 -519 -3 -748 -11 -772
-6 -19 -25 -51 -41 -71 l-29 -38 245 0 245 0 -25 25 c-61 61 -59 29 -62 849
l-3 748 128 -4 c141 -5 229 -30 298 -82 19 -15 35 -23 35 -19 0 4 -21 104 -46
221 l-47 212 -524 0 c-410 0 -525 -3 -528 -12z"/>
<path d="M4860 3936 c0 -2 31 -22 69 -45 115 -68 106 18 109 -951 2 -719 0
-841 -13 -880 l-15 -45 25 28 c13 15 29 45 35 67 7 26 10 311 8 877 -3 825 -3
839 -24 873 -27 47 -87 80 -146 80 -27 0 -48 -2 -48 -4z"/>
<path d="M5063 3910 c57 -68 57 -60 57 -945 0 -883 0 -877 -56 -945 l-26 -30
242 0 242 0 -26 30 c-45 54 -56 116 -56 311 l0 177 55 42 c31 24 57 41 60 39
2 -3 50 -106 106 -229 56 -124 125 -278 155 -343 35 -79 49 -119 41 -122 -7
-2 -86 -22 -177 -44 -181 -44 -344 -90 -821 -234 -174 -53 -410 -121 -525
-151 -918 -245 -1449 -233 -1719 39 -40 40 -84 97 -104 133 -32 62 -33 63 -52
46 -11 -10 -36 -52 -57 -93 -35 -72 -37 -80 -37 -176 0 -95 2 -104 38 -180 55
-115 168 -225 298 -289 116 -57 195 -75 369 -83 355 -16 696 58 1595 346 273
87 553 173 805 246 138 40 503 136 506 132 0 -1 19 -43 41 -94 98 -222 242
-374 447 -468 218 -101 431 -80 581 57 227 207 182 571 -92 754 -32 21 -61 41
-65 44 -4 3 19 4 50 2 127 -7 314 60 412 148 l45 41 -58 -40 c-196 -134 -441
-144 -647 -28 -80 45 -189 158 -232 242 -73 142 -73 138 -73 720 0 473 2 526
18 584 20 70 57 149 91 196 37 50 41 62 7 25 -45 -50 -98 -140 -124 -207 -21
-57 -22 -69 -25 -607 -2 -370 1 -566 8 -602 27 -131 137 -291 255 -370 50 -34
50 -34 15 -27 -40 8 -263 10 -359 4 -49 -4 -67 -1 -73 10 -4 8 -43 95 -86 194
-44 99 -127 282 -186 406 -58 124 -106 230 -106 235 0 5 37 41 82 79 45 39
110 106 145 150 264 333 145 766 -242 883 -39 12 -127 16 -409 19 l-359 5 26
-32z m707 -332 c85 -49 111 -138 75 -249 -22 -64 -99 -149 -255 -277 -63 -53
-123 -102 -132 -110 -17 -14 -18 2 -18 327 l0 343 143 -4 c132 -3 145 -5 187
-30z m899 -1958 c124 -42 194 -114 195 -200 2 -83 -66 -135 -164 -128 -128 9
-283 124 -349 260 -50 101 -48 102 117 96 105 -4 152 -11 201 -28z"/>
<path d="M5480 3556 c0 -9 24 -15 89 -19 48 -3 104 -12 123 -20 44 -18 85 -68
94 -112 7 -39 -16 -119 -47 -162 -12 -15 -2 -8 20 16 39 42 71 116 71 165 0
11 -9 39 -21 62 -32 66 -78 84 -217 84 -87 0 -112 -3 -112 -14z"/>
<path d="M6372 1593 c3 -15 18 -19 93 -24 146 -10 227 -40 283 -104 35 -39 47
-74 39 -108 -5 -20 -4 -20 19 6 30 35 31 71 3 117 -54 87 -169 130 -352 130
-79 0 -88 -2 -85 -17z"/>
<path d="M3719 3547 c-62 -21 -156 -74 -147 -82 2 -2 26 7 54 20 62 30 114 41
222 51 l82 7 -2 -739 c-2 -422 -7 -748 -12 -759 -9 -20 -9 -20 12 -1 12 10 26
35 32 55 6 22 10 306 10 754 l0 717 -92 0 c-70 0 -110 -6 -159 -23z"/>
<path d="M4370 3556 c0 -10 19 -16 68 -21 153 -15 232 -51 324 -149 l67 -71
-14 59 c-17 70 -52 112 -129 149 -73 36 -125 46 -228 47 -70 0 -88 -3 -88 -14z"/>
<path d="M1910 2838 c-26 -24 -32 -32 -15 -20 28 18 73 63 64 62 -2 -1 -24
-19 -49 -42z"/>
<path d="M5900 2838 c-25 -22 -36 -36 -25 -30 19 10 84 72 74 72 -2 -1 -24
-19 -49 -42z"/>
<path d="M3055 2744 c-55 -25 -121 -55 -147 -66 -27 -11 -48 -25 -48 -29 0
-15 14 -11 128 42 61 27 127 53 146 56 36 6 47 -1 98 -67 l28 -35 0 48 c0 38
-5 53 -25 72 -34 35 -66 32 -180 -21z"/>
<path d="M1518 2516 c-22 -17 -25 -23 -13 -31 21 -15 198 -405 198 -437 0 -30
6 -35 25 -16 31 31 14 92 -83 299 -53 111 -97 204 -98 205 -1 1 -14 -8 -29
-20z"/>
<path d="M5508 2515 c-27 -23 -39 -43 -18 -30 12 7 25 -19 160 -321 62 -137
113 -250 114 -251 1 -1 13 1 27 5 l26 7 -136 302 c-75 166 -138 304 -141 306
-3 3 -17 -5 -32 -18z"/>
<path d="M885 1930 c-30 -20 -29 -20 1278 -20 1301 0 1307 0 1307 20 0 20 -6
20 -1277 20 -1257 0 -1278 -1 -1308 -20z"/>
<path d="M3775 1932 c-29 -17 -24 -17 168 -20 109 -1 285 -1 390 0 189 3 192
3 160 21 -29 15 -66 17 -360 17 -291 -1 -331 -3 -358 -18z"/>
<path d="M4880 1930 c-25 -20 -24 -20 365 -20 l390 0 -30 20 c-28 19 -47 20
-365 20 -317 0 -336 -1 -360 -20z"/>
<path d="M2402 1687 c-160 -196 -159 -424 4 -629 89 -112 270 -219 429 -254
98 -21 405 -24 535 -5 272 39 612 125 1040 262 747 238 1427 439 1490 439 11
0 28 -26 50 -76 39 -89 108 -198 170 -267 118 -133 323 -244 498 -268 145 -20
305 25 407 116 l40 36 -55 -36 c-107 -69 -243 -96 -375 -72 -275 50 -524 254
-646 533 -20 45 -39 74 -48 74 -59 0 -753 -201 -1306 -378 -396 -127 -565
-178 -762 -228 -365 -93 -639 -127 -855 -107 -156 15 -220 32 -337 89 -78 39
-110 62 -182 133 -198 197 -231 417 -93 623 60 88 59 92 -4 15z"/>
</g>
</svg>
